# xmcd
#
# Track frame offsets:
#	150
#	17850
#	36790
#	56122
#	78585
#	94465
#	113165
#	135900
#	156620
#
# Disc length: 2476 seconds
#
# Revision: 0
# Processed by: cddbd v1.5.2PL0 Copyright (c) Steve Scherf et al.
# Submitted via: audiograbber 1.83.01
#
DISCID=7809aa09
DTITLE=Scorpions - Love At First Sting [CD-R]
DYEAR=1984
DGENRE=Heavy Metal
TTITLE0=Bad Boys Running Wild
TTITLE1=Rock You Like A Hurricane
TTITLE2=I'm Leaving You
TTITLE3=Coming Home
TTITLE4=The Same Thrill
TTITLE5=Big City Nights
TTITLE6=As Soon As The Good Times Roll
TTITLE7=Crossfire
TTITLE8=Still Loving You
EXTD=
EXTT0=
EXTT1=
EXTT2=
EXTT3=
EXTT4=
EXTT5=
EXTT6=
EXTT7=
EXTT8=
PLAYORDER=
